# xmcd
#
# Track frame offsets: 
#        150
#        24253
#        41905
#        61575
#        78062
#        96222
#        114961
#        138851
#        158649
#        186857
#        200044
#        226345
#
# Disc length: 3153 seconds
#
# Revision: 0
# Processed by: cddbd v1.5.2PL0 Copyright (c) Steve Scherf et al.
# Submitted via: ExactAudioCopy v1.3
#
DISCID=8c0c4f0c
DTITLE=Sergio Duarte Blues Band - Highway Man
DYEAR=2017
DGENRE=Blues
TTITLE0=You Gotta Move
TTITLE1=Bring It On Home
TTITLE2=Letter From Home
TTITLE3=Mr. Highway Man
TTITLE4=Hawiian Eye
TTITLE5=Just Got To Know
TTITLE6=I'm Ready
TTITLE7=Help Me
TTITLE8=Liquor And Drugs
TTITLE9=Red Top
TTITLE10=Little Girl
TTITLE11=Watch Out
EXTD=
EXTT0=
EXTT1=
EXTT2=
EXTT3=
EXTT4=
EXTT5=
EXTT6=
EXTT7=
EXTT8=
EXTT9=
EXTT10=
EXTT11=
PLAYORDER=
